<svg width="214" height="40" viewBox="0 0 214 40" fill="none" xmlns="http://www.w3.org/2000/svg">
<rect x="0.546997" y="0.026062" width="39.0034" height="39.0034" rx="19.5017" fill="#0E51F9"/>
<rect x="0.546997" y="0.026062" width="39.0034" height="39.0034" rx="19.5017" fill="url(#paint0_linear_1_2816)"/>
<path d="M33.0487 18.5278H31.0025C30.89 17.2777 30.5627 16.0565 30.035 14.9178L31.8075 13.894C32.0372 13.7614 32.2049 13.543 32.2735 13.2867C32.3422 13.0305 32.3063 12.7575 32.1737 12.5278C32.0411 12.298 31.8227 12.1304 31.5664 12.0617C31.3102 11.993 31.0372 12.0289 30.8075 12.1615L29.0325 13.1865C28.3073 12.1626 27.4138 11.2691 26.39 10.544L27.415 8.76902C27.5476 8.53928 27.5835 8.26626 27.5148 8.01004C27.4461 7.75382 27.2785 7.53538 27.0487 7.40277C26.819 7.27016 26.5459 7.23425 26.2897 7.30294C26.0335 7.37162 25.8151 7.53928 25.6825 7.76902L24.6587 9.54152C23.52 9.01375 22.2987 8.68645 21.0487 8.57402V6.52777C21.0487 6.26255 20.9433 6.0082 20.7558 5.82066C20.5683 5.63313 20.3139 5.52777 20.0487 5.52777C19.7835 5.52777 19.5291 5.63313 19.3416 5.82066C19.1541 6.0082 19.0487 6.26255 19.0487 6.52777V8.57402C17.7987 8.68645 16.5774 9.01375 15.4387 9.54152L14.415 7.76902C14.3493 7.65526 14.2619 7.55555 14.1577 7.47558C14.0535 7.39561 13.9346 7.33695 13.8077 7.30294C13.6808 7.26893 13.5485 7.26024 13.4183 7.27737C13.288 7.2945 13.1625 7.33711 13.0487 7.40277C12.819 7.53538 12.6513 7.75382 12.5826 8.01004C12.5139 8.26626 12.5498 8.53928 12.6825 8.76902L13.7075 10.544C12.6836 11.2691 11.7901 12.1626 11.065 13.1865L9.28996 12.1615C9.06021 12.0289 8.7872 11.993 8.53098 12.0617C8.27476 12.1304 8.05631 12.298 7.92371 12.5278C7.7911 12.7575 7.75519 13.0305 7.82387 13.2867C7.89256 13.543 8.06021 13.7614 8.28996 13.894L10.0625 14.9178C9.53469 16.0565 9.20739 17.2777 9.09496 18.5278H7.04871C6.78349 18.5278 6.52914 18.6331 6.3416 18.8207C6.15406 19.0082 6.04871 19.2626 6.04871 19.5278C6.04871 19.793 6.15406 20.0473 6.3416 20.2349C6.52914 20.4224 6.78349 20.5278 7.04871 20.5278H9.09496C9.20739 21.7778 9.53469 22.9991 10.0625 24.1378L8.28996 25.1615C8.0992 25.2715 7.9501 25.4414 7.86578 25.6449C7.78146 25.8483 7.76665 26.0739 7.82363 26.2866C7.88062 26.4993 8.00622 26.6872 8.18095 26.8212C8.35567 26.9553 8.56975 27.0279 8.78996 27.0278C8.96553 27.0283 9.1381 26.9822 9.28996 26.894L11.065 25.869C11.7901 26.8929 12.6836 27.7864 13.7075 28.5115L12.6825 30.2865C12.5498 30.5163 12.5139 30.7893 12.5826 31.0455C12.6513 31.3017 12.819 31.5202 13.0487 31.6528C13.2785 31.7854 13.5515 31.8213 13.8077 31.7526C14.0639 31.6839 14.2823 31.5163 14.415 31.2865L15.4387 29.514C16.5774 30.0418 17.7987 30.3691 19.0487 30.4815V32.5278C19.0487 32.793 19.1541 33.0473 19.3416 33.2349C19.5291 33.4224 19.7835 33.5278 20.0487 33.5278C20.3139 33.5278 20.5683 33.4224 20.7558 33.2349C20.9433 33.0473 21.0487 32.793 21.0487 32.5278V30.4815C22.2987 30.3691 23.52 30.0418 24.6587 29.514L25.6825 31.2865C25.8151 31.5163 26.0335 31.6839 26.2897 31.7526C26.5459 31.8213 26.819 31.7854 27.0487 31.6528C27.2785 31.5202 27.4461 31.3017 27.5148 31.0455C27.5835 30.7893 27.5476 30.5163 27.415 30.2865L26.39 28.5115C27.4138 27.7864 28.3073 26.8929 29.0325 25.869L30.8075 26.894C30.9212 26.9597 31.0468 27.0023 31.177 27.0195C31.3072 27.0366 31.4396 27.0279 31.5665 26.9939C31.6933 26.9599 31.8123 26.9012 31.9165 26.8213C32.0206 26.7413 32.1081 26.6415 32.1737 26.5278C32.3065 26.2982 32.3426 26.0253 32.2742 25.7691C32.2057 25.5128 32.0383 25.2943 31.8087 25.1615L30.0362 24.1378C30.5635 22.999 30.8904 21.7777 31.0025 20.5278H33.0487C33.3139 20.5278 33.5683 20.4224 33.7558 20.2349C33.9433 20.0473 34.0487 19.793 34.0487 19.5278C34.0487 19.2626 33.9433 19.0082 33.7558 18.8207C33.5683 18.6331 33.3139 18.5278 33.0487 18.5278ZM20.0487 10.5278C22.2616 10.5304 24.3961 11.3473 26.0453 12.8227C27.6946 14.2981 28.7431 16.3288 28.9912 18.5278H20.6262L16.4437 11.284C17.5799 10.7846 18.8076 10.5271 20.0487 10.5278ZM11.0487 19.5278C11.0495 18.118 11.3814 16.7281 12.0178 15.4701C12.6542 14.2121 13.5772 13.1212 14.7125 12.2853L18.8937 19.5278L14.7125 26.7703C13.5772 25.9344 12.6542 24.8435 12.0178 23.5855C11.3814 22.3275 11.0495 20.9376 11.0487 19.5278ZM20.0487 28.5278C18.808 28.5304 17.5804 28.275 16.4437 27.7778L20.6262 20.5278H28.9912C28.7431 22.7267 27.6946 24.7574 26.0453 26.2328C24.3961 27.7083 22.2616 28.5251 20.0487 28.5278Z" fill="white"/>
<path d="M73.4152 16.2225H70.6371C70.5303 15.6289 70.3314 15.1065 70.0406 14.6554C69.7497 14.2042 69.3935 13.8214 68.9721 13.5068C68.5506 13.1921 68.0787 12.9547 67.5564 12.7944C67.0399 12.6342 66.4909 12.554 65.9091 12.554C64.8585 12.554 63.9176 12.8182 63.0866 13.3465C62.2615 13.8748 61.6085 14.6494 61.1277 15.6704C60.6528 16.6914 60.4154 17.938 60.4154 19.4101C60.4154 20.8941 60.6528 22.1466 61.1277 23.1676C61.6085 24.1886 62.2644 24.9602 63.0955 25.4826C63.9265 26.005 64.8614 26.2662 65.9002 26.2662C66.476 26.2662 67.0221 26.189 67.5386 26.0347C68.0609 25.8744 68.5328 25.6399 68.9543 25.3312C69.3757 25.0226 69.7319 24.6456 70.0228 24.2004C70.3196 23.7493 70.5244 23.2329 70.6371 22.6511L73.4152 22.66C73.2668 23.5564 72.9789 24.3815 72.5515 25.1354C72.13 25.8833 71.5869 26.5303 70.9221 27.0764C70.2632 27.6166 69.5093 28.0351 68.6605 28.3319C67.8116 28.6287 66.8856 28.7771 65.8824 28.7771C64.3034 28.7771 62.8966 28.4031 61.6619 27.6552C60.4272 26.9013 59.4537 25.8239 58.7414 24.423C58.035 23.0221 57.6818 21.3512 57.6818 19.4101C57.6818 17.4631 58.038 15.7921 58.7503 14.3972C59.4626 12.9963 60.4361 11.9218 61.6708 11.1739C62.9055 10.42 64.3094 10.0431 65.8824 10.0431C66.85 10.0431 67.7522 10.1826 68.5892 10.4616C69.4321 10.7346 70.189 11.1383 70.8597 11.6725C71.5305 12.2008 72.0855 12.8479 72.5248 13.6136C72.964 14.3734 73.2608 15.243 73.4152 16.2225ZM78.2256 33.6565C77.8278 33.6565 77.4658 33.6238 77.1393 33.5585C76.8128 33.4992 76.5694 33.4339 76.4091 33.3626L77.0502 31.1812C77.537 31.3117 77.9703 31.3681 78.3502 31.3503C78.7301 31.3325 79.0655 31.1901 79.3564 30.9229C79.6532 30.6558 79.9143 30.2195 80.1399 29.6141L80.4694 28.7059L75.4653 14.8513H78.3146L81.7782 25.4648H81.9207L85.3844 14.8513H88.2425L82.6063 30.3531C82.3451 31.0654 82.0127 31.6679 81.6091 32.1606C81.2054 32.6592 80.7246 33.0332 80.1666 33.2825C79.6086 33.5318 78.9616 33.6565 78.2256 33.6565ZM90.9582 28.5278V10.2924H93.6205V17.0683H93.7808C93.9351 16.7834 94.1577 16.454 94.4486 16.08C94.7395 15.706 95.1431 15.3796 95.6596 15.1006C96.176 14.8156 96.8586 14.6732 97.7075 14.6732C98.8116 14.6732 99.7969 14.9522 100.664 15.5102C101.53 16.0681 102.21 16.8725 102.703 17.9231C103.201 18.9738 103.451 20.2382 103.451 21.7162C103.451 23.1943 103.204 24.4616 102.712 25.5182C102.219 26.5689 101.542 27.3792 100.681 27.949C99.8207 28.5129 98.8383 28.7949 97.7342 28.7949C96.9031 28.7949 96.2235 28.6554 95.6952 28.3764C95.1728 28.0974 94.7632 27.7709 94.4664 27.397C94.1696 27.023 93.9411 26.6906 93.7808 26.3997H93.5582V28.5278H90.9582ZM93.5671 21.6895C93.5671 22.6511 93.7066 23.4941 93.9856 24.2182C94.2646 24.9424 94.6682 25.5093 95.1965 25.9189C95.7248 26.3226 96.3719 26.5244 97.1376 26.5244C97.933 26.5244 98.5979 26.3136 99.1321 25.8922C99.6663 25.4648 100.07 24.886 100.343 24.1559C100.622 23.4258 100.762 22.6037 100.762 21.6895C100.762 20.7872 100.625 19.977 100.352 19.2587C100.085 18.5405 99.6812 17.9736 99.141 17.5581C98.6068 17.1425 97.939 16.9348 97.1376 16.9348C96.3659 16.9348 95.713 17.1336 95.1787 17.5314C94.6504 17.9291 94.2498 18.4841 93.9767 19.1964C93.7036 19.9087 93.5671 20.7398 93.5671 21.6895ZM112.334 28.8038C110.987 28.8038 109.827 28.5159 108.853 27.9401C107.885 27.3584 107.138 26.5422 106.609 25.4915C106.087 24.4349 105.826 23.1973 105.826 21.7786C105.826 20.3777 106.087 19.143 106.609 18.0745C107.138 17.006 107.874 16.172 108.817 15.5725C109.767 14.9729 110.877 14.6732 112.147 14.6732C112.919 14.6732 113.667 14.8008 114.391 15.056C115.115 15.3113 115.765 15.712 116.341 16.2581C116.917 16.8042 117.371 17.5135 117.704 18.3861C118.036 19.2528 118.202 20.3064 118.202 21.547V22.4909H107.33V20.4964H115.593C115.593 19.7959 115.451 19.1756 115.166 18.6354C114.881 18.0893 114.48 17.659 113.964 17.3444C113.453 17.0298 112.854 16.8725 112.165 16.8725C111.417 16.8725 110.764 17.0565 110.206 17.4245C109.654 17.7866 109.227 18.2615 108.924 18.8491C108.627 19.4309 108.479 20.0631 108.479 20.7457V22.3039C108.479 23.218 108.639 23.9956 108.96 24.6367C109.286 25.2778 109.74 25.7675 110.322 26.1059C110.904 26.4383 111.584 26.6045 112.361 26.6045C112.866 26.6045 113.326 26.5333 113.741 26.3908C114.157 26.2424 114.516 26.0228 114.819 25.7319C115.121 25.4411 115.353 25.0819 115.513 24.6545L118.033 25.1086C117.831 25.8506 117.469 26.5006 116.947 27.0586C116.43 27.6107 115.78 28.041 114.997 28.3497C114.219 28.6524 113.332 28.8038 112.334 28.8038ZM121.156 28.5278V14.8513H123.729V17.0238H123.872C124.121 16.2878 124.56 15.709 125.19 15.2876C125.825 14.8602 126.543 14.6465 127.344 14.6465C127.511 14.6465 127.706 14.6524 127.932 14.6643C128.164 14.6761 128.345 14.691 128.475 14.7088V17.2553C128.368 17.2257 128.178 17.193 127.905 17.1574C127.632 17.1158 127.359 17.0951 127.086 17.0951C126.457 17.0951 125.896 17.2286 125.403 17.4957C124.917 17.7569 124.531 18.122 124.246 18.5909C123.961 19.0539 123.818 19.5822 123.818 20.1758V28.5278H121.156ZM130.993 10.2924H134.332L140.137 24.4676H140.351L146.156 10.2924H149.495V28.5278H146.877V15.3321H146.708L141.33 28.5011H139.158L133.78 15.3232H133.611V28.5278H130.993V10.2924ZM157.262 28.8305C156.395 28.8305 155.612 28.6702 154.911 28.3497C154.211 28.0232 153.656 27.5513 153.246 26.934C152.842 26.3166 152.641 25.5598 152.641 24.6634C152.641 23.8918 152.789 23.2566 153.086 22.758C153.383 22.2594 153.783 21.8646 154.288 21.5738C154.792 21.2829 155.356 21.0633 155.98 20.9149C156.603 20.7665 157.238 20.6537 157.885 20.5765C158.704 20.4815 159.369 20.4044 159.88 20.345C160.39 20.2797 160.761 20.1758 160.993 20.0334C161.224 19.8909 161.34 19.6594 161.34 19.3389V19.2765C161.34 18.4989 161.12 17.8964 160.681 17.469C160.248 17.0416 159.601 16.8279 158.74 16.8279C157.843 16.8279 157.137 17.0268 156.621 17.4245C156.11 17.8163 155.757 18.2526 155.561 18.7334L153.059 18.1635C153.356 17.3325 153.789 16.6617 154.359 16.1512C154.935 15.6348 155.597 15.2608 156.345 15.0293C157.093 14.7919 157.879 14.6732 158.704 14.6732C159.25 14.6732 159.829 14.7385 160.44 14.8691C161.058 14.9937 161.634 15.2252 162.168 15.5636C162.708 15.9019 163.15 16.3857 163.495 17.0149C163.839 17.6382 164.011 18.4485 164.011 19.4457V28.5278H161.411V26.6579H161.304C161.132 27.0022 160.874 27.3406 160.53 27.673C160.185 28.0054 159.743 28.2814 159.203 28.5011C158.663 28.7207 158.016 28.8305 157.262 28.8305ZM157.841 26.6936C158.577 26.6936 159.206 26.5481 159.728 26.2573C160.256 25.9664 160.657 25.5865 160.93 25.1175C161.209 24.6427 161.349 24.1351 161.349 23.595V21.832C161.254 21.927 161.07 22.016 160.797 22.0991C160.53 22.1763 160.224 22.2445 159.88 22.3039C159.535 22.3573 159.2 22.4078 158.873 22.4553C158.547 22.4968 158.274 22.5324 158.054 22.5621C157.538 22.6274 157.066 22.7372 156.638 22.8916C156.217 23.0459 155.879 23.2685 155.623 23.5593C155.374 23.8443 155.249 24.2242 155.249 24.6991C155.249 25.358 155.493 25.8566 155.98 26.1949C156.466 26.5273 157.087 26.6936 157.841 26.6936ZM167.557 28.5278V14.8513H170.13V17.0238H170.273C170.522 16.2878 170.961 15.709 171.59 15.2876C172.226 14.8602 172.944 14.6465 173.745 14.6465C173.911 14.6465 174.107 14.6524 174.333 14.6643C174.564 14.6761 174.745 14.691 174.876 14.7088V17.2553C174.769 17.2257 174.579 17.193 174.306 17.1574C174.033 17.1158 173.76 17.0951 173.487 17.0951C172.858 17.0951 172.297 17.2286 171.804 17.4957C171.317 17.7569 170.932 18.122 170.647 18.5909C170.362 19.0539 170.219 19.5822 170.219 20.1758V28.5278H167.557ZM179.629 23.8888L179.611 20.6388H180.074L185.523 14.8513H188.711L182.496 21.4402H182.077L179.629 23.8888ZM177.18 28.5278V10.2924H179.842V28.5278H177.18ZM185.817 28.5278L180.92 22.0279L182.754 20.1669L189.085 28.5278H185.817ZM196.468 28.8038C195.121 28.8038 193.96 28.5159 192.987 27.9401C192.019 27.3584 191.271 26.5422 190.743 25.4915C190.221 24.4349 189.959 23.1973 189.959 21.7786C189.959 20.3777 190.221 19.143 190.743 18.0745C191.271 17.006 192.007 16.172 192.951 15.5725C193.901 14.9729 195.011 14.6732 196.281 14.6732C197.053 14.6732 197.801 14.8008 198.525 15.056C199.249 15.3113 199.899 15.712 200.475 16.2581C201.051 16.8042 201.505 17.5135 201.837 18.3861C202.17 19.2528 202.336 20.3064 202.336 21.547V22.4909H191.464V20.4964H199.727C199.727 19.7959 199.585 19.1756 199.3 18.6354C199.015 18.0893 198.614 17.659 198.098 17.3444C197.587 17.0298 196.988 16.8725 196.299 16.8725C195.551 16.8725 194.898 17.0565 194.34 17.4245C193.788 17.7866 193.361 18.2615 193.058 18.8491C192.761 19.4309 192.613 20.0631 192.613 20.7457V22.3039C192.613 23.218 192.773 23.9956 193.094 24.6367C193.42 25.2778 193.874 25.7675 194.456 26.1059C195.038 26.4383 195.717 26.6045 196.495 26.6045C196.999 26.6045 197.46 26.5333 197.875 26.3908C198.291 26.2424 198.65 26.0228 198.952 25.7319C199.255 25.4411 199.487 25.0819 199.647 24.6545L202.167 25.1086C201.965 25.8506 201.603 26.5006 201.08 27.0586C200.564 27.6107 199.914 28.041 199.13 28.3497C198.353 28.6524 197.465 28.8038 196.468 28.8038ZM211.674 14.8513V16.9882H204.204V14.8513H211.674ZM206.207 11.5746H208.869V24.5121C208.869 25.0285 208.946 25.4173 209.101 25.6785C209.255 25.9337 209.454 26.1089 209.697 26.2038C209.947 26.2929 210.217 26.3374 210.508 26.3374C210.721 26.3374 210.908 26.3226 211.069 26.2929C211.229 26.2632 211.353 26.2394 211.442 26.2216L211.923 28.4209C211.769 28.4803 211.549 28.5396 211.264 28.599C210.979 28.6643 210.623 28.6999 210.196 28.7059C209.495 28.7177 208.843 28.5931 208.237 28.3319C207.632 28.0707 207.142 27.6671 206.768 27.1209C206.394 26.5748 206.207 25.8892 206.207 25.0641V11.5746Z" fill="white"/>
<defs>
<linearGradient id="paint0_linear_1_2816" x1="20.0487" y1="0.026062" x2="20.0487" y2="39.0295" gradientUnits="userSpaceOnUse">
<stop stop-color="white" stop-opacity="0.2"/>
<stop offset="1" stop-color="white" stop-opacity="0"/>
</linearGradient>
</defs>
</svg>
